<svg width="1280" height="500" viewBox="0 0 1280 500" fill="none" xmlns="http://www.w3.org/2000/svg" role="img" aria-labelledby="title desc">
  <title id="title">Qwensper local workflow</title>
  <desc id="desc">Workflow diagram showing audio input, local ASR, speaker diarization, local AI summary, Q&amp;A and exports.</desc>
  <rect width="1280" height="500" rx="28" fill="#F8FAFC"/>
  <rect x="34" y="34" width="1212" height="432" rx="24" fill="#FFFFFF" stroke="#E2E8F0"/>

  <text x="76" y="92" font-family="Inter, ui-sans-serif, system-ui, -apple-system, BlinkMacSystemFont, Segoe UI, sans-serif" font-size="34" font-weight="800" fill="#0F172A">本地处理流程</text>
  <text x="76" y="128" font-family="Inter, ui-sans-serif, system-ui, -apple-system, BlinkMacSystemFont, Segoe UI, sans-serif" font-size="18" fill="#64748B">音频、逐字稿、摘要和问答上下文都留在本机。</text>

  <g transform="translate(74 182)">
    <rect width="176" height="190" rx="18" fill="#ECFEFF" stroke="#99F6E4"/>
    <circle cx="88" cy="60" r="28" fill="#0F766E"/>
    <path d="M75 62C75 49 80 43 88 43C96 43 101 49 101 62C101 75 96 81 88 81C80 81 75 75 75 62Z" stroke="#FFFFFF" stroke-width="4"/>
    <path d="M63 64C64 83 74 94 88 94C102 94 112 83 113 64" stroke="#FFFFFF" stroke-width="4" stroke-linecap="round"/>
    <text x="88" y="124" text-anchor="middle" font-family="Inter, ui-sans-serif, system-ui, -apple-system, BlinkMacSystemFont, Segoe UI, sans-serif" font-size="18" font-weight="800" fill="#0F172A">访谈音频</text>
    <text x="88" y="154" text-anchor="middle" font-family="Inter, ui-sans-serif, system-ui, -apple-system, BlinkMacSystemFont, Segoe UI, sans-serif" font-size="14" fill="#475569">m4a / wav / mp3</text>
  </g>

  <path d="M270 276H328" stroke="#94A3B8" stroke-width="3" stroke-linecap="round"/>
  <path d="M320 266L332 276L320 286" stroke="#94A3B8" stroke-width="3" stroke-linecap="round" stroke-linejoin="round"/>

  <g transform="translate(350 182)">
    <rect width="176" height="190" rx="18" fill="#EFF6FF" stroke="#BFDBFE"/>
    <circle cx="88" cy="60" r="28" fill="#2563EB"/>
    <path d="M65 66C76 45 101 45 112 66" stroke="#FFFFFF" stroke-width="4" stroke-linecap="round"/>
    <path d="M72 74C80 60 96 60 104 74" stroke="#FFFFFF" stroke-width="4" stroke-linecap="round"/>
    <path d="M84 83C86 79 90 79 92 83" stroke="#FFFFFF" stroke-width="4" stroke-linecap="round"/>
    <text x="88" y="124" text-anchor="middle" font-family="Inter, ui-sans-serif, system-ui, -apple-system, BlinkMacSystemFont, Segoe UI, sans-serif" font-size="18" font-weight="800" fill="#0F172A">Qwen3-ASR</text>
    <text x="88" y="154" text-anchor="middle" font-family="Inter, ui-sans-serif, system-ui, -apple-system, BlinkMacSystemFont, Segoe UI, sans-serif" font-size="14" fill="#475569">0.6B · MLX / Metal</text>
  </g>

  <path d="M546 276H604" stroke="#94A3B8" stroke-width="3" stroke-linecap="round"/>
  <path d="M596 266L608 276L596 286" stroke="#94A3B8" stroke-width="3" stroke-linecap="round" stroke-linejoin="round"/>

  <g transform="translate(626 182)">
    <rect width="176" height="190" rx="18" fill="#FFF7ED" stroke="#FED7AA"/>
    <circle cx="88" cy="60" r="28" fill="#F97316"/>
    <circle cx="74" cy="58" r="9" stroke="#FFFFFF" stroke-width="4"/>
    <circle cx="102" cy="58" r="9" stroke="#FFFFFF" stroke-width="4"/>
    <path d="M58 88C64 78 84 78 90 88" stroke="#FFFFFF" stroke-width="4" stroke-linecap="round"/>
    <path d="M86 88C92 78 112 78 118 88" stroke="#FFFFFF" stroke-width="4" stroke-linecap="round"/>
    <text x="88" y="124" text-anchor="middle" font-family="Inter, ui-sans-serif, system-ui, -apple-system, BlinkMacSystemFont, Segoe UI, sans-serif" font-size="18" font-weight="800" fill="#0F172A">发言人识别</text>
    <text x="88" y="154" text-anchor="middle" font-family="Inter, ui-sans-serif, system-ui, -apple-system, BlinkMacSystemFont, Segoe UI, sans-serif" font-size="14" fill="#475569">pyannote 4.x</text>
  </g>

  <path d="M822 276H880" stroke="#94A3B8" stroke-width="3" stroke-linecap="round"/>
  <path d="M872 266L884 276L872 286" stroke="#94A3B8" stroke-width="3" stroke-linecap="round" stroke-linejoin="round"/>

  <g transform="translate(902 182)">
    <rect width="176" height="190" rx="18" fill="#F0FDF4" stroke="#BBF7D0"/>
    <circle cx="88" cy="60" r="28" fill="#16A34A"/>
    <path d="M68 61H108" stroke="#FFFFFF" stroke-width="4" stroke-linecap="round"/>
    <path d="M75 47H101" stroke="#FFFFFF" stroke-width="4" stroke-linecap="round"/>
    <path d="M78 75H98" stroke="#FFFFFF" stroke-width="4" stroke-linecap="round"/>
    <text x="88" y="124" text-anchor="middle" font-family="Inter, ui-sans-serif, system-ui, -apple-system, BlinkMacSystemFont, Segoe UI, sans-serif" font-size="18" font-weight="800" fill="#0F172A">本地 AI 分析</text>
    <text x="88" y="154" text-anchor="middle" font-family="Inter, ui-sans-serif, system-ui, -apple-system, BlinkMacSystemFont, Segoe UI, sans-serif" font-size="14" fill="#475569">摘要 · Q&amp;A · RAG</text>
  </g>

  <g transform="translate(956 64)">
    <rect width="232" height="78" rx="18" fill="#0F172A"/>
    <text x="24" y="33" font-family="Inter, ui-sans-serif, system-ui, -apple-system, BlinkMacSystemFont, Segoe UI, sans-serif" font-size="16" font-weight="800" fill="#FFFFFF">输出</text>
    <text x="24" y="58" font-family="Inter, ui-sans-serif, system-ui, -apple-system, BlinkMacSystemFont, Segoe UI, sans-serif" font-size="15" fill="#CBD5E1">Markdown · JSON · SRT</text>
  </g>
</svg>
