<svg width="1280" height="460" viewBox="0 0 1280 460" fill="none" xmlns="http://www.w3.org/2000/svg" role="img" aria-labelledby="title desc">
  <title id="title">Qwensper use cases</title>
  <desc id="desc">Four Qwensper use cases: academic research, legal work, oral history, and internal research.</desc>
  <rect width="1280" height="460" rx="28" fill="#111827"/>
  <path d="M0 364C141 306 235 340 390 297C545 254 583 151 743 151C900 151 957 244 1115 213C1182 200 1230 172 1280 142V460H0V364Z" fill="#14B8A6" fill-opacity="0.2"/>
  <path d="M0 0H1280V126C1185 161 1119 154 1019 119C870 67 806 30 664 84C520 139 425 150 292 98C183 55 92 39 0 52V0Z" fill="#F97316" fill-opacity="0.15"/>

  <text x="72" y="84" font-family="Inter, ui-sans-serif, system-ui, -apple-system, BlinkMacSystemFont, Segoe UI, sans-serif" font-size="34" font-weight="850" fill="#FFFFFF">为高敏感访谈材料而做</text>
  <text x="72" y="121" font-family="Inter, ui-sans-serif, system-ui, -apple-system, BlinkMacSystemFont, Segoe UI, sans-serif" font-size="18" fill="#CBD5E1">学术、法律、口述史和内部研究都需要一个不会把原始材料发到云端的工作台。</text>

  <g transform="translate(72 178)">
    <rect width="260" height="190" rx="20" fill="#F8FAFC"/>
    <rect x="24" y="24" width="54" height="54" rx="16" fill="#0F766E"/>
    <path d="M39 53L51 42L64 53L51 64L39 53Z" stroke="#FFFFFF" stroke-width="4" stroke-linejoin="round"/>
    <text x="24" y="108" font-family="Inter, ui-sans-serif, system-ui, -apple-system, BlinkMacSystemFont, Segoe UI, sans-serif" font-size="22" font-weight="850" fill="#0F172A">学术研究</text>
    <text x="24" y="140" font-family="Inter, ui-sans-serif, system-ui, -apple-system, BlinkMacSystemFont, Segoe UI, sans-serif" font-size="15" fill="#475569">访谈逐字稿、主题整理、</text>
    <text x="24" y="164" font-family="Inter, ui-sans-serif, system-ui, -apple-system, BlinkMacSystemFont, Segoe UI, sans-serif" font-size="15" fill="#475569">编码前的资料准备。</text>
  </g>

  <g transform="translate(370 178)">
    <rect width="260" height="190" rx="20" fill="#F8FAFC"/>
    <rect x="24" y="24" width="54" height="54" rx="16" fill="#2563EB"/>
    <path d="M50 38V68M35 48H65M40 68H60" stroke="#FFFFFF" stroke-width="4" stroke-linecap="round"/>
    <text x="24" y="108" font-family="Inter, ui-sans-serif, system-ui, -apple-system, BlinkMacSystemFont, Segoe UI, sans-serif" font-size="22" font-weight="850" fill="#0F172A">法律工作</text>
    <text x="24" y="140" font-family="Inter, ui-sans-serif, system-ui, -apple-system, BlinkMacSystemFont, Segoe UI, sans-serif" font-size="15" fill="#475569">敏感录音本地转写，</text>
    <text x="24" y="164" font-family="Inter, ui-sans-serif, system-ui, -apple-system, BlinkMacSystemFont, Segoe UI, sans-serif" font-size="15" fill="#475569">按时间戳快速定位。</text>
  </g>

  <g transform="translate(668 178)">
    <rect width="260" height="190" rx="20" fill="#F8FAFC"/>
    <rect x="24" y="24" width="54" height="54" rx="16" fill="#F97316"/>
    <path d="M38 47C43 40 59 40 64 47C69 55 63 66 51 72C39 66 33 55 38 47Z" stroke="#FFFFFF" stroke-width="4" stroke-linejoin="round"/>
    <text x="24" y="108" font-family="Inter, ui-sans-serif, system-ui, -apple-system, BlinkMacSystemFont, Segoe UI, sans-serif" font-size="22" font-weight="850" fill="#0F172A">口述史</text>
    <text x="24" y="140" font-family="Inter, ui-sans-serif, system-ui, -apple-system, BlinkMacSystemFont, Segoe UI, sans-serif" font-size="15" fill="#475569">长音频、多人访谈、</text>
    <text x="24" y="164" font-family="Inter, ui-sans-serif, system-ui, -apple-system, BlinkMacSystemFont, Segoe UI, sans-serif" font-size="15" fill="#475569">发言人标签和导出。</text>
  </g>

  <g transform="translate(966 178)">
    <rect width="242" height="190" rx="20" fill="#F8FAFC"/>
    <rect x="24" y="24" width="54" height="54" rx="16" fill="#7C3AED"/>
    <path d="M36 58H66M36 45H66M36 71H56" stroke="#FFFFFF" stroke-width="4" stroke-linecap="round"/>
    <text x="24" y="108" font-family="Inter, ui-sans-serif, system-ui, -apple-system, BlinkMacSystemFont, Segoe UI, sans-serif" font-size="22" font-weight="850" fill="#0F172A">内部研究</text>
    <text x="24" y="140" font-family="Inter, ui-sans-serif, system-ui, -apple-system, BlinkMacSystemFont, Segoe UI, sans-serif" font-size="15" fill="#475569">用户访谈、会议材料、</text>
    <text x="24" y="164" font-family="Inter, ui-sans-serif, system-ui, -apple-system, BlinkMacSystemFont, Segoe UI, sans-serif" font-size="15" fill="#475569">不可外发的调研数据。</text>
  </g>
</svg>
