<svg width="1280" height="640" viewBox="0 0 1280 640" fill="none" xmlns="http://www.w3.org/2000/svg" role="img" aria-labelledby="title desc">
  <title id="title">Qwensper local-first transcription hero</title>
  <desc id="desc">A marketing hero image for Qwensper showing local transcription, private AI summary, and interview Q&amp;A.</desc>
  <defs>
    <linearGradient id="bg" x1="0" y1="0" x2="1280" y2="640" gradientUnits="userSpaceOnUse">
      <stop offset="0" stop-color="#0F172A"/>
      <stop offset="0.45" stop-color="#163B45"/>
      <stop offset="1" stop-color="#F7F3EA"/>
    </linearGradient>
    <linearGradient id="panel" x1="155" y1="116" x2="1125" y2="542" gradientUnits="userSpaceOnUse">
      <stop stop-color="#FFFFFF" stop-opacity="0.96"/>
      <stop offset="1" stop-color="#F8FAFC" stop-opacity="0.92"/>
    </linearGradient>
    <filter id="shadow" x="124" y="82" width="1032" height="502" filterUnits="userSpaceOnUse" color-interpolation-filters="sRGB">
      <feFlood flood-opacity="0" result="BackgroundImageFix"/>
      <feColorMatrix in="SourceAlpha" type="matrix" values="0 0 0 0 0 0 0 0 0 0 0 0 0 0 0 0 0 0 127 0" result="hardAlpha"/>
      <feOffset dy="18"/>
      <feGaussianBlur stdDeviation="22"/>
      <feComposite in2="hardAlpha" operator="out"/>
      <feColorMatrix type="matrix" values="0 0 0 0 0.02 0 0 0 0 0.05 0 0 0 0 0.09 0 0 0 0.26 0"/>
      <feBlend mode="normal" in2="BackgroundImageFix" result="effect1_dropShadow_1_1"/>
      <feBlend mode="normal" in="SourceGraphic" in2="effect1_dropShadow_1_1" result="shape"/>
    </filter>
  </defs>

  <rect width="1280" height="640" fill="url(#bg)"/>
  <path d="M0 512C151 454 259 498 400 451C551 401 600 256 757 254C895 252 938 360 1072 347C1151 340 1204 297 1280 252V640H0V512Z" fill="#14B8A6" fill-opacity="0.18"/>
  <path d="M0 92C132 134 233 111 339 81C473 42 570 18 701 80C830 140 959 136 1086 86C1165 54 1221 35 1280 31V0H0V92Z" fill="#F97316" fill-opacity="0.16"/>

  <g filter="url(#shadow)">
    <rect x="155" y="104" width="970" height="438" rx="26" fill="url(#panel)" stroke="#E2E8F0"/>
    <rect x="155" y="104" width="970" height="64" rx="26" fill="#F8FAFC"/>
    <path d="M155 142C155 121.013 172.013 104 193 104H1087C1107.99 104 1125 121.013 1125 142V168H155V142Z" fill="#F8FAFC"/>
    <circle cx="201" cy="136" r="8" fill="#EF4444"/>
    <circle cx="229" cy="136" r="8" fill="#F59E0B"/>
    <circle cx="257" cy="136" r="8" fill="#10B981"/>
    <text x="306" y="143" font-family="Inter, ui-sans-serif, system-ui, -apple-system, BlinkMacSystemFont, Segoe UI, sans-serif" font-size="17" font-weight="700" fill="#334155">Qwensper Local Workspace</text>

    <text x="210" y="238" font-family="Inter, ui-sans-serif, system-ui, -apple-system, BlinkMacSystemFont, Segoe UI, sans-serif" font-size="64" font-weight="800" fill="#0F172A">Qwensper</text>
    <text x="210" y="286" font-family="Inter, ui-sans-serif, system-ui, -apple-system, BlinkMacSystemFont, Segoe UI, sans-serif" font-size="26" font-weight="650" fill="#0F766E">本地访谈转录 + 私有 AI 分析</text>
    <text x="210" y="330" font-family="Inter, ui-sans-serif, system-ui, -apple-system, BlinkMacSystemFont, Segoe UI, sans-serif" font-size="20" fill="#475569">Qwen3-ASR 0.6B · pyannote 发言人识别 · Ollama Qwen3 总结问答</text>
    <text x="210" y="365" font-family="Inter, ui-sans-serif, system-ui, -apple-system, BlinkMacSystemFont, Segoe UI, sans-serif" font-size="20" fill="#475569">让敏感访谈材料留在你的 Mac 上，不上传云端。</text>

    <g transform="translate(210 416)">
      <rect width="148" height="44" rx="22" fill="#0F766E"/>
      <text x="24" y="29" font-family="Inter, ui-sans-serif, system-ui, -apple-system, BlinkMacSystemFont, Segoe UI, sans-serif" font-size="16" font-weight="700" fill="#FFFFFF">Local-first</text>
    </g>
    <g transform="translate(374 416)">
      <rect width="130" height="44" rx="22" fill="#F97316" fill-opacity="0.14" stroke="#FED7AA"/>
      <text x="23" y="29" font-family="Inter, ui-sans-serif, system-ui, -apple-system, BlinkMacSystemFont, Segoe UI, sans-serif" font-size="16" font-weight="700" fill="#C2410C">No cloud API</text>
    </g>
    <g transform="translate(520 416)">
      <rect width="156" height="44" rx="22" fill="#2563EB" fill-opacity="0.12" stroke="#BFDBFE"/>
      <text x="22" y="29" font-family="Inter, ui-sans-serif, system-ui, -apple-system, BlinkMacSystemFont, Segoe UI, sans-serif" font-size="16" font-weight="700" fill="#1D4ED8">Interview RAG</text>
    </g>

    <g transform="translate(762 205)">
      <rect width="274" height="214" rx="18" fill="#0F172A"/>
      <rect x="22" y="26" width="230" height="18" rx="9" fill="#14B8A6"/>
      <rect x="22" y="64" width="164" height="12" rx="6" fill="#CBD5E1"/>
      <rect x="22" y="92" width="210" height="12" rx="6" fill="#64748B"/>
      <rect x="22" y="118" width="188" height="12" rx="6" fill="#64748B"/>
      <rect x="22" y="154" width="84" height="34" rx="17" fill="#F97316"/>
      <text x="124" y="176" font-family="Inter, ui-sans-serif, system-ui, -apple-system, BlinkMacSystemFont, Segoe UI, sans-serif" font-size="15" fill="#E2E8F0">00:12:43 · SPEAKER_01</text>
      <path d="M60 171H86M73 158V184" stroke="#FFFFFF" stroke-width="4" stroke-linecap="round"/>
    </g>
  </g>
</svg>
